{"asset":{"version":"2.0","generator":"Blockbench 4.11.1 glTF exporter"},"scenes":[{"nodes":[11],"name":"blockbench_export"}],"scene":0,"nodes":[{"translation":[-0.05323905885263619,4.392326824631795,-0.033400215954935766],"name":"cube","mesh":0},{"rotation":[0.0436044400907044,0.0011418224482834954,-0.026152033653420892,0.9987058727081077],"translation":[-0.2032390588526362,5.542326824631793,-0.05840021595493575],"name":"cube","mesh":1},{"rotation":[-0.1928197653455024,0.9693704211838831,-0.02967780039797468,0.14920037798016658],"translation":[-1.839117557580007,3.842549740399834,-0.037623482385916604],"name":"cube","mesh":2},{"rotation":[-0.0068085540498920155,0.9245288991605611,0.19497147826312072,0.327392854034116],"translation":[0.6009842075783447,3.092549740399834,-1.8192787146823066],"name":"cube","mesh":3},{"translation":[0.05323905885263619,0.10767317536820542,0.033400215954935766],"name":"bone","children":[0,1,2,3]},{"translation":[-0.05275349468608667,0.09372081583597014,-0.03340728253914728],"name":"cube","mesh":4},{"translation":[-0.5627534946860867,2.10372081583597,0.017592717460852732],"name":"cube","mesh":5},{"rotation":[0,0,-0.23768589232617307,0.9713420698132614],"translation":[-1.3787534946860869,3.65922081583597,0.02609271746085274],"name":"cube","mesh":6},{"rotation":[0,-0.1865240360087346,0,0.9824503977255098],"translation":[0.1462465053139133,1.35372081583597,-0.5434072825391473],"name":"cube","mesh":7},{"rotation":[0.23351459944959121,-0.18117864320664756,0.04433413193901529,0.9542954028155587],"translation":[0.4627465053139135,2.90922081583597,-1.3344072825391478],"name":"cube","mesh":8},{"translation":[0.05275349468608667,-0.09372081583597014,0.03340728253914728],"name":"bone2","children":[5,6,7,8,9]},{"children":[4,10]}],"bufferViews":[{"buffer":0,"byteOffset":0,"byteLength":2256,"target":34962,"byteStride":12},{"buffer":0,"byteOffset":2256,"byteLength":2256,"target":34962,"byteStride":12},{"buffer":0,"byteOffset":4512,"byteLength":1504,"target":34962,"byteStride":8},{"buffer":0,"byteOffset":6016,"byteLength":444,"target":34963},{"buffer":0,"byteOffset":6460,"byteLength":1944,"target":34962,"byteStride":12},{"buffer":0,"byteOffset":8404,"byteLength":1944,"target":34962,"byteStride":12},{"buffer":0,"byteOffset":10348,"byteLength":1296,"target":34962,"byteStride":8},{"buffer":0,"byteOffset":11644,"byteLength":384,"target":34963},{"buffer":0,"byteOffset":12028,"byteLength":2256,"target":34962,"byteStride":12},{"buffer":0,"byteOffset":14284,"byteLength":2256,"target":34962,"byteStride":12},{"buffer":0,"byteOffset":16540,"byteLength":1504,"target":34962,"byteStride":8},{"buffer":0,"byteOffset":18044,"byteLength":444,"target":34963},{"buffer":0,"byteOffset":18488,"byteLength":2256,"target":34962,"byteStride":12},{"buffer":0,"byteOffset":20744,"byteLength":2256,"target":34962,"byteStride":12},{"buffer":0,"byteOffset":23000,"byteLength":1504,"target":34962,"byteStride":8},{"buffer":0,"byteOffset":24504,"byteLength":444,"target":34963},{"buffer":0,"byteOffset":24948,"byteLength":288,"target":34962,"byteStride":12},{"buffer":0,"byteOffset":25236,"byteLength":288,"target":34962,"byteStride":12},{"buffer":0,"byteOffset":25524,"byteLength":192,"target":34962,"byteStride":8},{"buffer":0,"byteOffset":25716,"byteLength":72,"target":34963},{"buffer":0,"byteOffset":25788,"byteLength":288,"target":34962,"byteStride":12},{"buffer":0,"byteOffset":26076,"byteLength":288,"target":34962,"byteStride":12},{"buffer":0,"byteOffset":26364,"byteLength":192,"target":34962,"byteStride":8},{"buffer":0,"byteOffset":26556,"byteLength":72,"target":34963},{"buffer":0,"byteOffset":26628,"byteLength":288,"target":34962,"byteStride":12},{"buffer":0,"byteOffset":26916,"byteLength":288,"target":34962,"byteStride":12},{"buffer":0,"byteOffset":27204,"byteLength":192,"target":34962,"byteStride":8},{"buffer":0,"byteOffset":27396,"byteLength":72,"target":34963},{"buffer":0,"byteOffset":27468,"byteLength":288,"target":34962,"byteStride":12},{"buffer":0,"byteOffset":27756,"byteLength":288,"target":34962,"byteStride":12},{"buffer":0,"byteOffset":28044,"byteLength":192,"target":34962,"byteStride":8},{"buffer":0,"byteOffset":28236,"byteLength":72,"target":34963},{"buffer":0,"byteOffset":28308,"byteLength":288,"target":34962,"byteStride":12},{"buffer":0,"byteOffset":28596,"byteLength":288,"target":34962,"byteStride":12},{"buffer":0,"byteOffset":28884,"byteLength":192,"target":34962,"byteStride":8},{"buffer":0,"byteOffset":29076,"byteLength":72,"target":34963}],"buffers":[{"byteLength":29148,"uri":"data:application/octet-stream;base64,"}],"accessors":[{"bufferView":0,"componentType":5126,"count":188,"max":[1.5,1.25,1.25],"min":[-1.5,-0.75,-1.25],"type":"VEC3"},{"bufferView":1,"componentType":5126,"count":188,"max":[1,0.986393928527832,1],"min":[-1,-1,-0.9183855652809143],"type":"VEC3"},{"bufferView":2,"componentType":5126,"count":188,"max":[0.59375,0.5944293737411499],"min":[0,0],"type":"VEC2"},{"bufferView":3,"componentType":5123,"count":222,"max":[187],"min":[0],"type":"SCALAR"},{"bufferView":4,"componentType":5126,"count":162,"max":[0.8999999761581421,0.44999998807907104,0.574999988079071],"min":[-0.4000000059604645,0,-0.6000000238418579],"type":"VEC3"},{"bufferView":5,"componentType":5126,"count":162,"max":[1,1,1],"min":[-1,-1,-1],"type":"VEC3"},{"bufferView":6,"componentType":5126,"count":162,"max":[0.7284442186355591,0.703125],"min":[0.0781937763094902,0],"type":"VEC2"},{"bufferView":7,"componentType":5123,"count":192,"max":[161],"min":[0],"type":"SCALAR"},{"bufferView":8,"componentType":5126,"count":188,"max":[0.6128785014152527,0.49757707118988037,0.3434687554836273],"min":[-0.5703215003013611,-0.2912229299545288,-0.4887767434120178],"type":"VEC3"},{"bufferView":9,"componentType":5126,"count":188,"max":[1,0.986393928527832,1],"min":[-1,-1,-0.9183855652809143],"type":"VEC3"},{"bufferView":10,"componentType":5126,"count":188,"max":[0.7033047080039978,0.71875],"min":[0.0031382811721414328,0.125],"type":"VEC2"},{"bufferView":11,"componentType":5123,"count":222,"max":[187],"min":[0],"type":"SCALAR"},{"bufferView":12,"componentType":5126,"count":188,"max":[0.4887767434120178,0.49757707118988037,0.6128785014152527],"min":[-0.3434687554836273,-0.2912229299545288,-0.5703215003013611],"type":"VEC3"},{"bufferView":13,"componentType":5126,"count":188,"max":[0.9183855652809143,0.986393928527832,1],"min":[-1,-1,-1],"type":"VEC3"},{"bufferView":14,"componentType":5126,"count":188,"max":[0.71875,0.7158092856407166],"min":[0.03266427293419838,0],"type":"VEC2"},{"bufferView":15,"componentType":5123,"count":222,"max":[187],"min":[0],"type":"SCALAR"},{"bufferView":16,"componentType":5126,"count":24,"max":[0.2874999940395355,3.9375,0.1875],"min":[-0.1875,0.0625,-0.1875],"type":"VEC3"},{"bufferView":17,"componentType":5126,"count":24,"max":[0.9615239500999451,1,0.9986048936843872],"min":[-0.8944271802902222,-1,-0.8944271802902222],"type":"VEC3"},{"bufferView":18,"componentType":5126,"count":24,"max":[0.484375,0.671875],"min":[0.06326070427894592,0.1328125],"type":"VEC2"},{"bufferView":19,"componentType":5123,"count":36,"max":[23],"min":[0],"type":"SCALAR"},{"bufferView":20,"componentType":5126,"count":24,"max":[0.4675000011920929,1.4874999523162842,0.042500000447034836],"min":[-0.4675000011920929,1.3174999952316284,-0.1274999976158142],"type":"VEC3"},{"bufferView":21,"componentType":5126,"count":24,"max":[1,1,1],"min":[-1,-1,-1],"type":"VEC3"},{"bufferView":22,"componentType":5126,"count":24,"max":[0.671875,0.625],"min":[0.0625,0.046875],"type":"VEC2"},{"bufferView":23,"componentType":5123,"count":36,"max":[23],"min":[0],"type":"SCALAR"},{"bufferView":24,"componentType":5126,"count":24,"max":[0.4675000011920929,0.08500000089406967,0],"min":[-0.4675000011920929,0,-0.08500000089406967],"type":"VEC3"},{"bufferView":25,"componentType":5126,"count":24,"max":[1,1,1],"min":[-1,-1,-1],"type":"VEC3"},{"bufferView":26,"componentType":5126,"count":24,"max":[0.6875,0.640625],"min":[0.109375,0.078125],"type":"VEC2"},{"bufferView":27,"componentType":5123,"count":36,"max":[23],"min":[0],"type":"SCALAR"},{"bufferView":28,"componentType":5126,"count":24,"max":[0.1274999976158142,1.4874999523162842,0.4675000011920929],"min":[-0.042500000447034836,1.3174999952316284,-0.4675000011920929],"type":"VEC3"},{"bufferView":29,"componentType":5126,"count":24,"max":[1,1,1],"min":[-1,-1,-1],"type":"VEC3"},{"bufferView":30,"componentType":5126,"count":24,"max":[0.703125,0.703125],"min":[0,0.03125],"type":"VEC2"},{"bufferView":31,"componentType":5123,"count":36,"max":[23],"min":[0],"type":"SCALAR"},{"bufferView":32,"componentType":5126,"count":24,"max":[0.08500000089406967,0.08500000089406967,0.4675000011920929],"min":[0,0,-0.4675000011920929],"type":"VEC3"},{"bufferView":33,"componentType":5126,"count":24,"max":[1,1,1],"min":[-1,-1,-1],"type":"VEC3"},{"bufferView":34,"componentType":5126,"count":24,"max":[0.703125,0.6875],"min":[0,0.109375],"type":"VEC2"},{"bufferView":35,"componentType":5123,"count":36,"max":[23],"min":[0],"type":"SCALAR"}],"materials":[{"pbrMetallicRoughness":{"metallicFactor":0,"roughnessFactor":1,"baseColorTexture":{"index":0}},"alphaMode":"MASK","alphaCutoff":0.05,"doubleSided":true}],"textures":[{"sampler":0,"source":0,"name":"mikegame-tree 3"}],"samplers":[{"magFilter":9728,"minFilter":9728,"wrapS":33071,"wrapT":33071}],"images":[{"mimeType":"image/png","uri":"data:image/png;base64,"}],"meshes":[{"primitives":[{"mode":4,"attributes":{"POSITION":0,"NORMAL":1,"TEXCOORD_0":2},"indices":3,"material":0}]},{"primitives":[{"mode":4,"attributes":{"POSITION":4,"NORMAL":5,"TEXCOORD_0":6},"indices":7,"material":0}]},{"primitives":[{"mode":4,"attributes":{"POSITION":8,"NORMAL":9,"TEXCOORD_0":10},"indices":11,"material":0}]},{"primitives":[{"mode":4,"attributes":{"POSITION":12,"NORMAL":13,"TEXCOORD_0":14},"indices":15,"material":0}]},{"primitives":[{"mode":4,"attributes":{"POSITION":16,"NORMAL":17,"TEXCOORD_0":18},"indices":19,"material":0}]},{"primitives":[{"mode":4,"attributes":{"POSITION":20,"NORMAL":21,"TEXCOORD_0":22},"indices":23,"material":0}]},{"primitives":[{"mode":4,"attributes":{"POSITION":24,"NORMAL":25,"TEXCOORD_0":26},"indices":27,"material":0}]},{"primitives":[{"mode":4,"attributes":{"POSITION":28,"NORMAL":29,"TEXCOORD_0":30},"indices":31,"material":0}]},{"primitives":[{"mode":4,"attributes":{"POSITION":32,"NORMAL":33,"TEXCOORD_0":34},"indices":35,"material":0}]}]}